<?xml version="1.0" encoding="UTF-8"?>
<svg id="Layer_2" data-name="Layer 2" xmlns="http://www.w3.org/2000/svg" viewBox="0 0 417.24 780.4">
  <defs>
    <style>
      .cls-1 {
        fill: none;
        stroke: #000;
        stroke-miterlimit: 10;
      }
    </style>
  </defs>
  <g id="letters">
    <path class="cls-1" d="M347.3,83.9H51.65c-9.15,0-16.8-6.6-18-15.6L25.1,8.3c-.6-4.5-4.35-7.8-9-7.8h-6.6C4.55.5.5,4.55.5,9.5v.9l21.3,243,14.55,167.25c4.2,47.1,43.5,83.1,90.75,83.1h88.8c10.05,0,18.3-8.1,18.3-18.15,0-.6,0-1.05-.15-1.65l-9.15-105.75c-.9-9.45-8.7-16.65-18.15-16.65h-116.1c-9.15,0-16.8-6.75-18-15.6l-13.5-95.85c0-.45-.15-.9-.15-1.35,0-4.95,4.05-9.15,9.15-9.15h228.9c10.05,0,18.15,8.25,18.15,18.3v236.7c0,5.1,4.05,9.15,9.15,9.15h25.05c10.05,0,18.15,8.1,18.15,18.15v85.05c0,1.2-.15,2.55-.3,3.6-1.8,8.4-9,14.7-17.85,14.7H64.7c-5.1,0-9.15,4.05-9.15,9,0,.6,0,1.2.15,1.65,8.7,47.55,9.75,96.15,3.15,144h161.1c87.9,0,163.35-63,178.95-149.55.9-4.65,1.65-9.3,2.4-13.95,29.4-173.7,16.65-351.9-36.75-519.75-2.4-7.65-9.45-12.75-17.25-12.75Z"/>
  </g>
</svg>